<svg xmlns="http://www.w3.org/2000/svg" viewBox="0 0 189.82 149.81"><defs><style>.cls-1{fill:#2f9646;}</style></defs><title>check</title><g id="Layer_2" data-name="Layer 2"><g id="Layer_1-2" data-name="Layer 1"><path class="cls-1" d="M58.45,112.18c1.27-1.23,2.34-2.23,3.36-3.27q51-51.76,101.9-103.53c6.8-6.9,16.11-7.18,22.14-.75,5.54,5.9,5.29,14.59-.8,20.81Q161.68,49.32,138.2,73.1q-34.71,35.28-69.42,70.53c-8.72,8.87-18.14,8.17-25.4-1.92Q23.43,114,3.52,86.19C-2,78.48-.92,69.37,6.08,64.42s15.73-3,21.16,4.56Q41.66,89,56,109C56.73,110,57.5,111,58.45,112.18Z"/></g></g></svg>