<?xml version="1.0" encoding="utf-8"?>
<!-- Generator: Adobe Illustrator 22.0.1, SVG Export Plug-In . SVG Version: 6.00 Build 0)  -->
<svg version="1.1" id="Layer_1" xmlns="http://www.w3.org/2000/svg" xmlns:xlink="http://www.w3.org/1999/xlink" x="0px" y="0px"
	 viewBox="0 0 24 24" style="enable-background:new 0 0 24 24;" xml:space="preserve">
<style type="text/css">
	.st0{fill:none;}
	.st1{fill:#2E7D32;}
	.st2{fill:#646464;}
</style>
<path class="st0" d="M0,0h24v24H0V0z"/>
<path class="st1" d="M9,16.2L4.8,12l-1.4,1.4L9,19L21,7l-1.4-1.4L9,16.2z"/>
<path class="st2" d="M4.2,23.8c0.3-0.4,0.5-0.7,0.7-1.1c7.3-11.3,14.6-22.6,22-33.9c1.5-2.3,4-2.9,6-1.4c1.8,1.3,2.3,3.7,0.9,5.7
	C30.5-1.7,27.1,3.5,23.8,8.7c-5,7.7-10,15.4-15,23.1c-1.9,2.9-4.5,3.2-7,0.9c-4.7-4.3-9.3-8.6-13.9-12.9c-1.9-1.8-2.1-4.3-0.5-6.1
	c1.6-1.7,4.1-1.7,6,0.1c3.4,3.1,6.7,6.2,10.1,9.3C3.7,23.3,3.9,23.5,4.2,23.8z"/>
</svg>
